<?xml version="1.0" encoding="UTF-8" standalone="no"?>
<!-- Created with Inkscape (http://www.inkscape.org/) -->

<svg
   width="20"
   height="16"
   viewBox="0 0 5.2916666 4.2333333"
   version="1.1"
   id="svg1"
   inkscape:version="1.3 (0e150ed6c4, 2023-07-21)"
   sodipodi:docname="brain-icon.svg"
   inkscape:export-filename="brain-icon-2.png"
   inkscape:export-xdpi="96"
   inkscape:export-ydpi="96"
   xmlns:inkscape="http://www.inkscape.org/namespaces/inkscape"
   xmlns:sodipodi="http://sodipodi.sourceforge.net/DTD/sodipodi-0.dtd"
   xmlns="http://www.w3.org/2000/svg"
   xmlns:svg="http://www.w3.org/2000/svg">
  <sodipodi:namedview
     id="namedview1"
     pagecolor="#ffffff"
     bordercolor="#000000"
     borderopacity="0.25"
     inkscape:showpageshadow="2"
     inkscape:pageopacity="0.0"
     inkscape:pagecheckerboard="0"
     inkscape:deskcolor="#d1d1d1"
     inkscape:document-units="mm"
     inkscape:zoom="32.776423"
     inkscape:cx="4.8968126"
     inkscape:cy="7.734218"
     inkscape:window-width="1920"
     inkscape:window-height="1009"
     inkscape:window-x="-8"
     inkscape:window-y="-8"
     inkscape:window-maximized="1"
     inkscape:current-layer="layer1"
     showgrid="true">
    <sodipodi:guide
       position="0,4.2333333"
       orientation="0,20"
       id="guide1"
       inkscape:locked="false" />
    <sodipodi:guide
       position="5.2916666,4.2333333"
       orientation="16,0"
       id="guide2"
       inkscape:locked="false" />
    <sodipodi:guide
       position="5.2916666,0"
       orientation="0,-20"
       id="guide3"
       inkscape:locked="false" />
    <sodipodi:guide
       position="0,0"
       orientation="-16,0"
       id="guide4"
       inkscape:locked="false" />
    <inkscape:grid
       id="grid4"
       units="px"
       originx="0"
       originy="0"
       spacingx="0.26458333"
       spacingy="0.26458333"
       empcolor="#0099e5"
       empopacity="0.30196078"
       color="#005883"
       opacity="0.14901961"
       empspacing="1"
       dotted="false"
       gridanglex="30"
       gridanglez="30"
       visible="true" />
  </sodipodi:namedview>
  <defs
     id="defs1" />
  <g
     inkscape:label="Layer 1"
     inkscape:groupmode="layer"
     id="layer1">
    <path
       style="fill:#000000;stroke-width:0.0176094"
       d="M 1.7853348,4.2041873 C 1.7639338,4.1965573 1.7239958,4.1665403 1.6965658,4.1375923 1.6185048,4.0552305 1.6264898,3.9376444 1.7230878,3.7473762 1.84883,3.49969 1.849653,3.519566 1.7157178,3.5704156 1.6131637,3.6093236 1.5756649,3.6143236 1.3851247,3.6144696 1.1762555,3.6146324 1.166254,3.6130196 1.0300346,3.5545906 0.84775376,3.4764979 0.75211366,3.4005365 0.67558726,3.2730674 0.59949816,3.1463139 0.57999656,2.9928296 0.62533856,2.8773964 0.65907936,2.7914857 0.65317896,2.7767327 0.58506046,2.776718 0.50380816,2.7767019 0.31609526,2.6878743 0.24096596,2.613889 0.01857706,2.3949118 -0.04595214,2.0030978 0.09599556,1.7336597 c 0.0318966,-0.060554 0.0731961,-0.1250231 0.0917753,-0.1432816 0.0185792,-0.018244 0.0393708,-0.06601 0.0462069,-0.1061343 0.0393566,-0.2309282 0.2940968,-0.53624395 0.5079005,-0.60873674 0.0599929,-0.0203404 0.0852515,-0.0420014 0.1173181,-0.1005897 0.1197003,-0.21874555 0.39248974,-0.45119592 0.68341254,-0.5823608 0.1109918,-0.0500386 0.1561755,-0.060715 0.2817039,-0.0665518 0.082232,-0.003813 0.1701953,3.961e-5 0.1954742,0.008653 0.036023,0.0121721 0.070374,0.005425 0.1588561,-0.0312081 0.1548879,-0.06416162 0.384973,-0.08599846 0.6803038,-0.06457226 0.2813309,0.02041437 0.3785922,0.03955271 0.5016856,0.09874246 0.086385,0.0415326 0.1070352,0.045155 0.1844854,0.0323079 0.2135383,-0.0354171 0.571529,0.0649386 0.886304,0.24844307 0.2078172,0.12115135 0.4387009,0.32266782 0.4576403,0.39942244 0.0095,0.0383941 0.045881,0.0827863 0.1117154,0.13619807 0.1192045,0.0967335 0.182368,0.21445735 0.2257227,0.42075475 0.033967,0.1616486 0.02906,0.2620483 -0.019755,0.4044132 -0.03818,0.1113545 -0.1665388,0.2382652 -0.2798078,0.2766696 -0.064885,0.021997 -0.082599,0.037089 -0.091875,0.078211 -0.016381,0.072727 -0.089095,0.1501889 -0.1926573,0.2052504 -0.082046,0.04363 -0.1045395,0.04759 -0.2701638,0.04759 H 4.1915805 l -0.02187,0.066361 C 4.1021735,2.6581591 3.8660148,2.9060624 3.6424422,3.0067379 3.4412356,3.0973409 3.2272575,3.0966669 3.0800766,3.0049779 3.0512156,2.9869989 3.0253606,2.9749739 3.0226236,2.9782429 3.0092916,2.9941699 2.9397116,3.1553823 2.9295436,3.1938411 2.9026386,3.295648 2.8046949,3.4551531 2.7169343,3.5400734 2.6605573,3.5946294 2.5534545,3.6679854 2.4505176,3.7225587 2.2531047,3.8272114 2.0915497,3.9692579 1.9980609,4.120362 1.9436009,4.208398 1.9299559,4.219839 1.880388,4.219074 1.849555,4.2186033 1.806808,4.211884 1.785423,4.204246 Z m -0.00781,-0.073152 c 0,-0.00337 -0.014721,-0.016513 -0.032705,-0.029037 -0.029642,-0.020633 -0.030308,-0.020049 -0.00709,0.00631 0.024409,0.027643 0.039768,0.03643 0.039768,0.022775 z M 1.9360699,4.0028454 C 2.0340573,3.8618957 2.1732195,3.7450383 2.3581221,3.6484237 2.637171,3.50262 2.7182188,3.4090454 2.8491635,3.0815044 L 2.8964625,2.963183 2.6687244,2.955553 C 2.4978203,2.949833 2.4162222,2.939265 2.3417581,2.913336 l -0.099221,-0.034551 -0.06697,0.092964 c -0.085805,0.1190832 -0.1432567,0.2499388 -0.17345,0.3950475 -0.026423,0.1269736 -0.076969,0.2567116 -0.1654097,0.4245944 -0.081153,0.1540445 -0.093208,0.2327892 -0.042535,0.2777811 0.021686,0.019256 0.046647,0.035021 0.055469,0.035021 0.00879,0 0.047709,-0.045565 0.086443,-0.1012647 z M 1.5123814,3.5645141 c -0.013899,-0.012314 -0.2393224,-0.013639 -0.253,-0.00144 -0.00625,0.00557 0.050307,0.010115 0.1256856,0.010115 0.075381,0 0.1326637,-0.00396 0.1273169,-0.00865 z M 1.067354,3.4984901 C 1.054589,3.4848521 1.035103,3.4736041 1.024111,3.4736041 c -0.010909,0 -0.00369,0.010999 0.016311,0.024359 0.046888,0.031487 0.056035,0.031662 0.026932,5.27e-4 z m 0.7032637,-0.083944 c 0.08101,-0.039949 0.1170764,-0.068194 0.1231762,-0.096484 0.00823,-0.038364 0.00625,-0.039216 -0.049158,-0.020811 -0.1159426,0.038526 -0.320536,0.1408764 -0.3635674,0.1818765 l -0.044164,0.042075 0.1095745,-0.025077 c 0.060263,-0.013786 0.1611226,-0.050508 0.2241314,-0.081568 z m -0.3911681,0.00909 C 1.4341659,3.3695967 1.5103972,3.3197775 1.5972273,3.2812806 1.7573116,3.2103146 1.7679499,3.2022924 1.7345144,3.1776548 1.7038524,3.1550538 1.5038534,3.2107388 1.366023,3.2802248 1.269369,3.3289578 1.1234246,3.4357914 1.1234246,3.4578101 c 0,0.014079 0.093207,0.04429 0.1466561,0.047458 0.0139,8.227e-4 0.06307,-0.035915 0.1093759,-0.081642 z m 1.3349158,0.054105 c 0.023245,-0.026326 0.022579,-0.02691 -0.00709,-0.00631 -0.017984,0.012465 -0.032705,0.025592 -0.032705,0.029037 0,0.01364 0.015346,0.00485 0.039768,-0.022775 z m -1.2627123,-0.041488 0.054888,-0.053925 -0.060743,0.048733 c -0.056617,0.045434 -0.069324,0.059116 -0.054888,0.059116 0.00326,0 0.030549,-0.024271 0.060744,-0.053924 z m 0.4753926,-0.00368 c 0,-0.015415 -0.010909,-0.020663 -0.0296,-0.014225 -0.023827,0.00806 -0.024748,0.012759 -0.00468,0.02411 0.033186,0.018685 0.034281,0.018375 0.034281,-0.00982 z m -1.00920454,0.00205 c 0,-0.00308 -0.018919,-0.019945 -0.042052,-0.037339 l -0.042052,-0.031605 0.035598,0.037338 c 0.033457,0.035079 0.04849,0.044892 0.04849,0.031604 z M 1.1421087,3.3656987 c 0.034874,-0.031942 0.059197,-0.058076 0.054051,-0.058076 -0.00511,0 -0.037867,0.026134 -0.072743,0.058076 -0.034874,0.031942 -0.059198,0.058076 -0.054051,0.058076 0.0051,0 0.037867,-0.026134 0.072743,-0.058076 z M 1.0930937,3.3237967 C 1.2023271,3.2248922 1.3289649,3.1581394 1.5095884,3.1042409 1.610412,3.0741626 1.6396284,3.058807 1.627985,3.0420738 c -0.022989,-0.033012 -0.3182697,0.00308 -0.4688939,0.0574 -0.1469131,0.052928 -0.31599754,0.150431 -0.31599754,0.182208 0,0.021119 0.1251608,0.1261081 0.1490969,0.1250523 0.00539,-2.316e-4 0.050775,-0.037558 0.10090904,-0.082947 z m 0.8654126,-0.035888 c -0.00597,-0.013198 -0.010362,-0.00924 -0.011338,0.00997 -8.113e-4,0.017497 0.00355,0.027293 0.00978,0.021779 0.00625,-0.00557 0.0068,-0.019828 0.00142,-0.03181 z M 0.77438686,3.2677601 c 0.00597,-0.013638 -0.00439,-0.026588 -0.024919,-0.031369 -0.030153,-0.00703 -0.031925,-0.00383 -0.012905,0.023258 0.02638,0.037499 0.025217,0.037251 0.037812,0.00806 z M 1.9882401,3.2090386 c 0.00808,-0.027528 0.00454,-0.029462 -0.024464,-0.013346 -0.025357,0.014079 -0.045894,0.013932 -0.081166,-2.697e-4 -0.038789,-0.015693 -0.045427,-0.014959 -0.037186,0.00409 0.00552,0.012759 0.03245,0.026253 0.059836,0.029976 0.027402,0.00368 0.055142,0.00792 0.061651,0.00924 0.00651,0.00135 0.016096,-0.012028 0.021316,-0.029713 z M 0.84547606,3.1955456 c 0.023245,-0.026311 0.022594,-0.02691 -0.00709,-0.00631 -0.017984,0.012465 -0.032705,0.025592 -0.032705,0.029038 0,0.013638 0.015346,0.00485 0.039768,-0.022776 z M 1.4785162,3.174809 c 0.015416,-0.00879 0.01963,-0.016087 0.00936,-0.016087 -0.010206,0 -0.031301,0.00719 -0.046717,0.016087 -0.015416,0.00879 -0.01963,0.016087 -0.00936,0.016087 0.010206,0 0.031301,-0.00719 0.046717,-0.016087 z M 0.84040296,3.1272047 C 0.99889746,3.0163926 1.2999974,2.9262939 1.5125928,2.9260446 c 0.084769,-9.96e-5 0.098512,-0.00439 0.092895,-0.029156 -0.00581,-0.025738 -0.029386,-0.028671 -0.2073349,-0.025753 -0.2713478,0.00439 -0.48826464,0.057079 -0.62771894,0.1523447 -0.038024,0.025973 -0.042732,0.039421 -0.031854,0.090911 0.00709,0.033233 0.017487,0.060421 0.023245,0.060421 0.00581,0 0.04113,-0.021427 0.078587,-0.047605 z M 1.7479297,3.1042976 c -0.019471,-0.020531 -0.036534,-0.039494 -0.037896,-0.042134 -0.00137,-0.00264 -0.00709,0.010999 -0.012905,0.030343 -0.00752,0.025504 -0.00326,0.032718 0.015715,0.026266 0.014338,-0.00485 0.031046,-0.00176 0.037116,0.00703 0.0061,0.00879 0.016055,0.015869 0.022182,0.015869 0.0061,0 -0.00482,-0.016806 -0.024267,-0.037338 z m 0.19781,0.01644 c 0,-0.011434 -0.016721,-0.030167 -0.037158,-0.041504 C 1.8562757,3.0502266 1.7756059,2.9315455 1.7480847,2.8430995 l -0.023274,-0.074794 -0.00171,0.086027 c -0.00199,0.1055619 0.016082,0.1501526 0.092456,0.2273823 0.058091,0.058737 0.1301392,0.080337 0.1301392,0.039025 z M 0.70468156,2.9984869 c 0.022976,-0.015823 0.021345,-0.020049 -0.010652,-0.027484 -0.033741,-0.00776 -0.037541,-0.00135 -0.035272,0.060187 0.0017,0.044245 0.00539,0.054099 0.010652,0.027484 0.00439,-0.022819 0.020338,-0.049892 0.035272,-0.060187 z m 1.37121854,0.00631 c 3.646e-4,-0.00689 -0.0112,-0.012465 -0.025627,-0.012465 -0.01709,0 -0.022862,0.011583 -0.016508,0.033187 0.00568,0.019286 5.742e-4,0.033187 -0.012195,0.033187 -0.012043,0 -0.016069,0.00851 -0.00879,0.01883 0.012043,0.017348 0.061411,-0.03945 0.063183,-0.072755 z m -0.7519568,-0.00588 c -0.00625,-0.00557 -0.022338,-0.00617 -0.035826,-0.00131 -0.014906,0.00528 -0.010496,0.00924 0.011339,0.00997 0.0197,7.201e-4 0.030734,-0.00323 0.024536,-0.00865 z M 3.5707995,2.918083 C 3.6870112,2.8658002 3.8085361,2.7695281 3.918576,2.6425765 l 0.080259,-0.092597 -0.086911,0.011731 c -0.068545,0.00924 -0.099647,0.024784 -0.1471172,0.073533 -0.033103,0.034009 -0.062772,0.077873 -0.06592,0.097481 -0.0041,0.025606 -0.018877,0.035652 -0.052447,0.035652 -0.04137,0 -0.046717,-0.00703 -0.046717,-0.061067 0,-0.056125 -0.00255,-0.059028 -0.031372,-0.035842 -0.018352,0.014753 -0.046659,0.020912 -0.068232,0.014842 -0.027173,-0.00763 -0.065608,0.012028 -0.1461782,0.074749 -0.06012,0.046826 -0.1376844,0.098128 -0.1723507,0.1139943 l -0.063026,0.028862 0.081721,0.036958 c 0.1040833,0.047075 0.2328417,0.039155 0.370519,-0.022779 z M 1.6590944,2.872062 c -0.00524,-0.011434 -0.00936,-0.00205 -0.00936,0.020737 0,0.022819 0.00425,0.032147 0.00936,0.020737 0.00524,-0.011434 0.00524,-0.030079 0,-0.041473 z M 2.1013919,2.869852 C 2.1285929,2.832997 2.1277289,2.828054 2.0883439,2.79519 2.0651269,2.775832 2.0403769,2.759993 2.0333289,2.759993 c -0.015855,0 -0.016892,0.087391 -0.00143,0.1230867 0.0158,0.036561 0.035585,0.032806 0.069552,-0.013198 z m 0.4934003,0.02946 c -0.00625,-0.00557 -0.022324,-0.00617 -0.035826,-0.00131 -0.014906,0.00528 -0.010496,0.00924 0.011339,0.00997 0.0197,7.2e-4 0.030733,-0.00323 0.024536,-0.00865 z m 0.4605305,-0.02428 c 0.015843,-0.015267 0.015359,-0.017467 -0.00199,-0.00879 -0.012622,0.00631 -0.058942,0.018449 -0.1027806,0.026867 l -0.079721,0.015312 0.081692,-0.0066 c 0.044929,-0.00353 0.091178,-0.015686 0.1027805,-0.026876 z M 0.84271756,2.8574339 C 0.92713206,2.811751 1.2069075,2.7608912 1.3850716,2.7588385 L 1.5252379,2.7572285 1.4131097,2.7350535 C 1.3059601,2.7138625 1.2918337,2.7151375 1.0953977,2.7635785 0.90678506,2.8100975 0.74965206,2.86518 0.74965206,2.8847886 c 0,0.01578 0.029217,0.00719 0.093067,-0.027366 z M 1.9083616,2.8147719 c 0,-0.057782 -0.00539,-0.073152 -0.021033,-0.059306 -0.012905,0.011434 -0.016198,0.041561 -0.00852,0.077976 0.017318,0.081921 0.029528,0.074193 0.029528,-0.018669 z m 0.4298466,0.038276 c 0,-0.00352 -0.013048,-0.010999 -0.029004,-0.016397 -0.016637,-0.00573 -0.024138,-0.00294 -0.017585,0.00645 0.010909,0.015766 0.046589,0.023318 0.046589,0.00982 z M 3.074465,2.7928474 C 3.1424137,2.7610964 3.2688654,2.6791312 3.3554797,2.6106845 3.562212,2.4473232 3.5651264,2.4231193 3.3941982,2.2890623 3.2640732,2.1870055 3.2300591,2.1270252 3.2781281,2.0843531 c 0.03686,-0.032718 0.083521,-0.017187 0.1059862,0.035284 0.00965,0.022424 0.063396,0.070894 0.1195455,0.1077028 0.1206224,0.07912 0.1526566,0.1442642 0.1370316,0.2786981 l -0.010496,0.089693 0.037769,-0.042633 c 0.055101,-0.062195 0.1321254,-0.091747 0.2391229,-0.091747 0.077168,0 0.094499,0.00528 0.095038,0.029037 5.007e-4,0.022116 0.00695,0.019139 0.027118,-0.012465 0.038719,-0.060701 0.054205,-0.172718 0.029542,-0.2136316 -0.028167,-0.046724 -0.1156734,-0.08503 -0.1942716,-0.08503 -0.073663,0 -0.1916901,-0.039495 -0.2461668,-0.082377 -0.022919,-0.018038 -0.082514,-0.033362 -0.1540708,-0.039625 -0.064177,-0.00557 -0.1440751,-0.020092 -0.1775445,-0.03219 -0.065438,-0.023641 -0.209424,-0.010855 -0.2464023,0.021867 -0.011065,0.00967 -0.024238,0.1030681 -0.029371,0.2073901 -0.00864,0.1768771 -0.012622,0.1925852 -0.05812,0.2329696 -0.060943,0.054099 -0.1703807,0.064983 -0.1812132,0.01801 -0.00454,-0.019432 0.015855,-0.047722 0.055382,-0.077068 l 0.062472,-0.046371 -0.00552,-0.1505248 c -0.00639,-0.175566 0.015453,-0.2278248 0.1221488,-0.2921857 0.03825,-0.023068 0.059141,-0.041958 0.046421,-0.041958 -0.012765,0 -0.058049,-0.04008 -0.1007395,-0.089063 l -0.077623,-0.089063 -0.09515,0.022497 C 2.7266771,1.7538834 2.6409719,1.7641544 2.5885703,1.7642564 2.4356266,1.7645718 2.0926086,1.6893604 1.9276824,1.619362 L 1.778503,1.556036 1.769433,1.622911 c -0.025756,0.1893983 -0.024791,0.2230219 0.00724,0.2487334 0.046987,0.037763 0.085337,0.031487 0.1590787,-0.025986 0.073933,-0.057635 0.1220838,-0.05435 0.1220838,0.00836 0,0.02691 -0.023684,0.058133 -0.069594,0.091718 -0.079778,0.058383 -0.1704007,0.07909 -0.2274614,0.051975 -0.037725,-0.017922 -0.039341,-0.015033 -0.039341,0.070247 0,0.09886 0.043498,0.1533259 0.1308199,0.163797 0.031514,0.00383 0.048646,0.017569 0.052603,0.042354 0.011779,0.073899 -0.1722162,0.063413 -0.2512556,-0.014373 -0.029627,-0.029141 -0.03489,-0.061346 -0.034449,-0.2109275 2.907e-4,-0.097101 0.00638,-0.2006615 0.013473,-0.2301407 0.010652,-0.044159 0.0061,-0.056858 -0.026026,-0.072125 -0.031967,-0.015193 -0.056221,-0.010269 -0.1347485,0.027746 -0.1045396,0.050522 -0.2482885,0.062695 -0.2989897,0.025342 -0.041456,-0.030547 -0.054646,-0.1059569 -0.031741,-0.1814659 0.020549,-0.067754 0.054291,-0.092305 0.103732,-0.075468 0.03289,0.011148 0.035229,0.036825 0.00893,0.0982 -0.013616,0.031853 -0.012905,0.051227 0.00269,0.067829 0.026633,0.02848 0.066092,0.018391 0.1852599,-0.047368 0.079607,-0.043937 0.097903,-0.047956 0.14791,-0.032484 0.053228,0.01647 0.057057,0.015002 0.057057,-0.021882 0,-0.021749 0.00794,-0.058105 0.017671,-0.080807 0.013332,-0.031106 0.010652,-0.046432 -0.010786,-0.062195 -0.052575,-0.038746 -0.1004126,-0.1451879 -0.1004126,-0.2234721 0,-0.1503591 0.1465526,-0.28913831 0.3053365,-0.28913831 0.05544,0 0.068445,0.006156 0.068445,0.0324109 0,0.0221156 -0.02523,0.0424274 -0.079422,0.0639559 -0.09301,0.036957 -0.1413151,0.080762 -0.1616203,0.1465812 -0.047228,0.1531573 0.1275581,0.288958 0.5120376,0.3978138 0.1453046,0.041137 0.1978808,0.047633 0.3862394,0.047721 0.1199143,5e-5 0.2240746,-0.00528 0.2314552,-0.01188 0.00737,-0.0066 0.00326,-0.03379 -0.00922,-0.060539 -0.012484,-0.02675 -0.024125,-0.084855 -0.025883,-0.1291148 -0.00284,-0.071143 0.00156,-0.081084 0.037599,-0.085647 0.048065,-0.00601 0.066714,0.020752 0.098767,0.1420202 0.02852,0.1079118 0.1391289,0.262713 0.2359789,0.3302679 0.1651021,0.1151526 0.3650622,0.1611968 0.5005523,0.1152554 0.1301251,-0.044113 0.1518032,-0.075982 0.1518032,-0.2230645 0,-0.1065597 0.00511,-0.1274134 0.032209,-0.1320624 0.045016,-0.00776 0.1078021,0.089738 0.1078869,0.1674662 3.83e-5,0.034581 -0.016382,0.091511 -0.036491,0.1265043 -0.037116,0.064602 -0.1351739,0.1497196 -0.1751264,0.1520192 -0.056589,0.00323 0.1190334,0.046137 0.1935084,0.047252 0.046561,6.952e-4 0.1046099,0.013638 0.1290754,0.028906 0.042392,0.026368 0.04605,0.025899 0.078912,-0.010116 0.046519,-0.051007 0.043357,-0.1025695 -0.012194,-0.200026 -0.054164,-0.094886 -0.057567,-0.1323557 -0.01821,-0.1999327 0.052034,-0.089342 0.1517535,-0.047414 0.1048095,0.04407 -0.017502,0.034112 -0.013757,0.053969 0.022011,0.1164432 0.037825,0.066068 0.046136,0.072096 0.067651,0.049071 0.031102,-0.033276 0.092541,-0.03398 0.106709,-0.00124 0.013757,0.031708 -0.042519,0.1092421 -0.086641,0.1194795 -0.018409,0.00425 -0.038138,0.028465 -0.043824,0.053764 -0.00568,0.025298 -0.031216,0.068004 -0.056716,0.0949 -0.069523,0.073357 -0.00922,0.1219286 0.1506117,0.1212832 0.1091205,-4.44e-4 0.2201957,-0.043573 0.2955802,-0.1147749 0.047895,-0.045228 0.056063,-0.065921 0.056063,-0.1417856 0,-0.1014127 -0.041115,-0.1538758 -0.1646992,-0.2101354 -0.054574,-0.024843 -0.069892,-0.040976 -0.06541,-0.068898 0.00497,-0.031384 0.016169,-0.035901 0.079834,-0.032411 0.093648,0.00512 0.1933112,0.073122 0.2437176,0.1662651 0.020564,0.037985 0.047114,0.069339 0.059028,0.069659 0.011917,3.356e-4 0.05968,-0.032201 0.1061564,-0.07231 C 5.1164313,1.7725683 5.1532734,1.6040249 5.0953703,1.3614247 5.061474,1.219375 4.9846611,1.0930496 4.8922121,1.027303 4.8307164,0.9835711 4.8049325,0.9762228 4.7128679,0.9762228 c -0.1549108,0 -0.1720403,0.0178765 -0.1654001,0.1726225 l 0.00539,0.1259913 0.074613,0.021661 c 0.098144,0.02848 0.1473343,0.071685 0.1960188,0.1721535 0.05307,0.1095358 0.038719,0.1838491 -0.03408,0.1763711 -0.041753,-0.00425 -0.049667,-0.013198 -0.049667,-0.056097 0,-0.07302 -0.086911,-0.1826318 -0.1542949,-0.1945973 -0.046944,-0.00836 -0.069537,0.00279 -0.1637392,0.080631 -0.1213175,0.1002376 -0.1959123,0.1194795 -0.1959123,0.050538 0,-0.025253 0.025572,-0.059512 0.070076,-0.093918 0.1179831,-0.091175 0.13523,-0.1254187 0.135372,-0.2686842 l 1.19e-4,-0.1285866 h -0.061892 c -0.072403,0 -0.1281113,0.040579 -0.1802336,0.1312851 -0.035301,0.061448 -0.1358403,0.1507859 -0.1696813,0.1507859 -0.00907,0 -0.038903,0.033995 -0.066332,0.075543 -0.037796,0.057268 -0.059469,0.074325 -0.089563,0.070511 C 3.7685915,1.4504041 3.8427253,1.2831062 3.9734879,1.214614 4.0101361,1.195417 4.0608819,1.1434275 4.0943241,1.0908225 4.1769227,0.96087179 4.3092708,0.89502394 4.4159662,0.93077824 c 0.032564,0.0108519 0.052773,0.0115824 0.052773,0.001759 0,-0.0268228 0.1245945,-0.0640736 0.2143227,-0.0640736 0.054036,0 0.084698,-0.007334 0.084698,-0.0201794 0,-0.057855 -0.383413,-0.33849918 -0.5928172,-0.43391848 -0.058758,-0.0267792 -0.060885,-0.0264712 -0.089762,0.0126123 -0.027415,0.0371476 -0.026776,0.044715 0.00879,0.10362614 0.046421,0.076891 0.048065,0.11950877 0.00752,0.19492888 -0.033927,0.0631952 -0.1339986,0.12077154 -0.1816677,0.10453761 -0.04552,-0.0155018 -0.037069,-0.049393 0.02559,-0.10268815 0.062005,-0.0527369 0.0727,-0.11515318 0.02862,-0.16690025 -0.035654,-0.0418553 -0.035826,-0.11276262 -4.098e-4,-0.17355684 l 0.02821,-0.0484399 -0.107646,-0.0281285 C 3.7528186,0.27341432 3.5256323,0.27300375 3.4467971,0.30955447 c -0.111645,0.0517691 -0.1031509,0.15795865 0.016992,0.21237481 0.095987,0.0434683 0.2154389,0.15821239 0.2311772,0.22205116 0.0068,0.0273802 0.028053,0.0937703 0.047327,0.14755055 0.02638,0.0735909 0.029855,0.10334719 0.014041,0.12030081 -0.054588,0.058398 -0.1069789,3.139e-4 -0.1480902,-0.16414458 -0.013048,-0.0524725 -0.028819,-0.095164 -0.03489,-0.0948852 -0.0061,2.8157e-4 -0.040477,0.017085 -0.076458,0.0373387 -0.053793,0.0302691 -0.064317,0.0452865 -0.059283,0.0844585 0.00439,0.0345366 -0.00893,0.0619318 -0.048448,0.0995493 -0.030024,0.0285534 -0.064998,0.0754391 -0.077721,0.10419818 -0.012765,0.028759 -0.042789,0.068678 -0.066814,0.088726 -0.03791,0.031618 -0.042434,0.047751 -0.034279,0.1219286 0.00808,0.073562 0.00269,0.093479 -0.038916,0.1426508 -0.063593,0.075219 -0.060943,0.1049751 0.012484,0.1395419 0.1889117,0.08899 0.2515633,0.1647238 0.1542071,0.186417 -0.036322,0.00806 -0.076798,-0.00776 -0.1822176,-0.071392 l -0.1355146,-0.08179 1e-5,-0.098787 c 2.3e-6,-0.075982 0.00935,-0.1092575 0.040232,-0.1441907 0.034747,-0.039216 0.037528,-0.053206 0.020395,-0.1027611 -0.017821,-0.051548 -0.014332,-0.064176 0.034513,-0.1246416 0.029897,-0.037001 0.06592,-0.087641 0.080074,-0.1125276 0.014184,-0.0248867 0.047555,-0.0660383 0.074233,-0.0914688 0.036336,-0.0346394 0.047114,-0.0604948 0.042974,-0.10309817 -0.00511,-0.0523847 0.00199,-0.0609642 0.089378,-0.10871473 0.052192,-0.0285096 0.091067,-0.0573566 0.086373,-0.064088 -0.00468,-0.006746 -0.043157,-0.0261045 -0.085492,-0.0430578 -0.050888,-0.0203703 -0.088584,-0.0508598 -0.1112475,-0.0899871 l -0.034281,-0.0591752 -0.013048,0.0616242 C 3.2217448,0.63071582 3.1231903,0.65616043 3.1231903,0.55486608 v -0.0491293 l -0.082359,0.0408726 C 2.9557643,0.58881578 2.861545,0.68219066 2.861545,0.72426872 c 0,0.0131989 0.012905,0.0514754 0.028762,0.0850892 0.027074,0.0575328 0.026352,0.0654077 -0.012195,0.13398354 C 2.855575,0.98340776 2.809327,1.0401183 2.7753604,1.069347 2.7234244,1.114033 2.7090014,1.119122 2.6847914,1.101289 2.6435614,1.070917 2.6478024,1.055636 2.7252404,0.95582237 c 0.059115,-0.0762011 0.065951,-0.0939464 0.046719,-0.1212833 -0.030541,-0.0434098 -0.028441,-0.15683816 0.00396,-0.21166203 0.041658,-0.0705826 0.1421094,-0.14693242 0.2538993,-0.19296432 0.056531,-0.0232741 0.1133048,-0.0423979 0.126154,-0.0424858 0.012905,-8.799e-5 0.023358,-0.007333 0.023358,-0.0162053 0,-0.008799 0.02994,-0.0426177 0.066517,-0.0751019 l 0.06653,-0.0590576 -0.065097,-0.024154 c -0.077521,-0.0287591 -0.3612246,-0.07453 -0.4619237,-0.07453 -0.082657,0 -0.231963,0.0800733 -0.2515661,0.13490752 -0.00852,0.0236407 0.00482,0.0556846 0.042746,0.1031715 0.072813,0.0911751 0.079692,0.1226619 0.057666,0.2638227 -0.022012,0.14106701 -0.041173,0.17838475 -0.091535,0.17838475 -0.055553,0 -0.062787,-0.0388042 -0.032832,-0.17613512 L 2.5368679,0.51857701 2.4749759,0.43697851 C 2.4003049,0.33852931 2.3924479,0.24911257 2.4524959,0.18132444 l 0.039414,-0.044495 -0.05344,0.0111463 c -0.1521818,0.0317948 -0.2634284,0.0771402 -0.3186255,0.12986261 -0.072175,0.0689423 -0.1079438,0.17544722 -0.089591,0.26670151 0.00737,0.0366783 0.014538,0.0965574 0.015898,0.13305969 0.00213,0.0560511 -0.00326,0.0663757 -0.03489,0.0663757 -0.097463,0 -0.1447813,-0.30977833 -0.067793,-0.44383817 0.019244,-0.0335105 0.030464,-0.0649534 0.024917,-0.0698808 -0.022309,-0.0197982 -0.1604243,-0.00704 -0.2600158,0.0240515 -0.058148,0.0181411 -0.1503679,0.0570194 -0.2049296,0.086365 l -0.099207,0.0533821 0.048817,0.045243 C 1.512872,0.49473328 1.537408,0.60069999 1.514971,0.70663445 1.493343,0.80873522 1.453305,0.87673599 1.3634671,0.96395291 1.3234441,1.0028016 1.2824981,1.0537493 1.2724721,1.0771557 c -0.027798,0.06491 -0.08213,0.046563 -0.089308,-0.030167 -0.00496,-0.05372 0.00539,-0.0722865 0.079539,-0.14272432 0.154654,-0.14679024 0.1909047,-0.324169 0.083832,-0.4101995 C 1.3102131,0.46488068 1.3069521,0.46617118 1.2146799,0.54598068 0.93765826,0.78560106 0.85355826,1.0311257 0.99414876,1.1898074 c 0.052957,0.059777 0.040776,0.1015728 -0.029812,0.1022188 -0.047157,4.325e-4 -0.056673,0.00776 -0.061851,0.047648 -0.00439,0.034199 0.00907,0.061389 0.049158,0.099036 0.10876704,0.1021161 0.12345944,0.1822139 0.059765,0.3256785 -0.020549,0.046299 -0.037499,0.1193769 -0.037627,0.1623893 -4.453e-4,0.1363593 -0.042094,0.1974014 -0.103703,0.1519999 -0.033754,-0.024873 -0.015884,-0.2257159 0.031967,-0.3589281 0.033429,-0.093066 0.034252,-0.107072 0.00893,-0.1505394 -0.053865,-0.09248 -0.080315,-0.098772 -0.1528272,-0.036386 -0.1337557,0.1150943 -0.1873885,0.3154613 -0.087804,0.3280178 0.029827,0.00383 0.042052,0.016513 0.042052,0.04385 0,0.061596 -0.1089075,0.081453 -0.1714006,0.031239 -0.027329,-0.021954 -0.034179,-0.052414 -0.034179,-0.1520206 0,-0.1042562 0.00808,-0.1369754 0.049256,-0.200685 0.06201,-0.095825 0.1141867,-0.1474228 0.1796922,-0.1776807 0.040052,-0.018493 0.051398,-0.035651 0.051398,-0.077697 0,-0.029668 0.011918,-0.068972 0.026323,-0.087317 0.022635,-0.028699 0.022635,-0.045976 0,-0.1234536 -0.014481,-0.049555 -0.026323,-0.1038611 -0.026323,-0.12069721 0,-0.0755853 -0.2743744,0.16528261 -0.3644579,0.31994161 -0.1199419,0.2059118 -0.088855,0.6044851 0.053129,0.6813497 0.032465,0.017569 0.073877,0.031986 0.092017,0.032015 0.036833,6.6e-5 0.1029791,0.084414 0.1192611,0.1520706 0.00581,0.024285 0.02655,0.047853 0.045993,0.052371 0.055908,0.013052 0.047298,0.090984 -0.01149,0.1040949 -0.059666,0.013346 -0.1400387,-0.031559 -0.1400387,-0.078152 0,-0.053939 -0.058078,-0.1276187 -0.1096448,-0.1391164 -0.093958,-0.020945 -0.1484127,-0.071923 -0.1819999,-0.1703961 -0.046193,-0.1354355 -0.057411,-0.062431 -0.015473,0.1006198 0.031442,0.1222074 0.037783,0.1322237 0.1002565,0.15828 0.047355,0.019739 0.080245,0.051827 0.1134181,0.1106062 0.037172,0.065878 0.058135,0.084547 0.1025542,0.091322 0.061326,0.00938 0.083052,0.052619 0.046206,0.092026 -0.057126,0.061111 -0.1897524,-0.00352 -0.2498227,-0.1218258 -0.021344,-0.042016 -0.053965,-0.073225 -0.092144,-0.088153 -0.068785,-0.026896 -0.098739,-0.075879 -0.1336707,-0.2185681 l -0.025259,-0.1032006 -0.00142,0.073605 c -0.00326,0.1629436 0.09399,0.3985251 0.205415,0.497448 0.104483,0.092759 0.1964838,0.1251252 0.3537699,0.1244652 0.2180952,-9.23e-4 0.37751734,-0.067595 0.63392224,-0.2651388 0.1440695,-0.1109878 0.2070812,-0.1330742 0.2070812,-0.07255 0,0.054658 -0.02916,0.089489 -0.1498842,0.1790521 l -0.1132621,0.084019 0.1082125,0.029375 c 0.075041,0.020369 0.1683557,0.029198 0.3044446,0.028816 0.232138,-6.609e-4 0.3313478,-0.031677 0.5111771,-0.1598089 0.1273736,-0.09075 0.1803143,-0.101691 0.1803143,-0.037251 0,0.04366 -0.090569,0.1316224 -0.191561,0.1860239 -0.028267,0.015223 -0.051398,0.032558 -0.051398,0.038497 0,0.026457 0.1711524,0.1083476 0.2990225,0.1430761 0.1142978,0.031047 0.1751532,0.037251 0.3297233,0.03357 0.1753675,-0.00409 0.1988028,-0.00879 0.3130901,-0.062226 z M 2.406734,2.6825782 C 2.385517,2.6637492 2.394112,2.6039562 2.422903,2.570167 2.461735,2.524588 2.458402,2.504217 2.384937,2.338076 2.348955,2.256712 2.319527,2.168665 2.319527,2.1424051 c 0,-0.1075416 0.1004405,-0.195426 0.2233401,-0.195426 0.047852,0 0.056999,0.00645 0.056999,0.040197 0,0.031031 -0.014552,0.04445 -0.063765,0.058882 -0.1052501,0.030842 -0.1127373,0.097949 -0.029684,0.265961 0.073707,0.1491022 0.076246,0.2582307 0.00765,0.3305739 C 2.4670241,2.692221 2.4321911,2.7052 2.4067045,2.682585 Z M 2.388467,2.1170564 c -0.00468,-0.01597 -0.00852,-0.00294 -0.00852,0.029037 0,0.031942 0.00384,0.045007 0.00852,0.029038 0.00468,-0.01597 0.00468,-0.042105 0,-0.058075 z M 0.78985576,2.5796235 c -0.0435128,-0.024873 -0.015572,-0.075689 0.0523635,-0.095252 0.0416111,-0.012027 0.0757489,-0.037749 0.0972929,-0.073429 0.0182668,-0.030241 0.0646161,-0.083534 0.10300814,-0.1184228 0.055865,-0.050802 0.083493,-0.063458 0.1384645,-0.063458 0.037769,0 0.07826,0.01027 0.089975,0.02279 0.032918,0.035211 0.00439,0.076774 -0.052602,0.076774 -0.056221,0 -0.1284658,0.059087 -0.1772979,0.1450268 -0.016809,0.029581 -0.049301,0.064308 -0.07222,0.077184 -0.05632,0.031648 -0.148151,0.046431 -0.1789953,0.028804 z M 1.1071203,2.3161642 c 0.023245,-0.026311 0.022579,-0.02691 -0.00709,-0.00631 -0.017983,0.012465 -0.032705,0.025592 -0.032705,0.029037 0,0.013638 0.015346,0.00485 0.039755,-0.022776 z m 0.779505,-0.9575179 c -0.035825,-0.069808 0.012905,-0.1856162 0.1022988,-0.2431079 0.041002,-0.026368 0.088967,-0.047941 0.1065673,-0.047941 0.022422,0 0.042576,-0.028568 0.067282,-0.0953992 0.028932,-0.0782846 0.034237,-0.13487818 0.029571,-0.3152545 l -0.00568,-0.21984836 h 0.045299 c 0.042916,0 0.046421,0.007626 0.066431,0.14630257 0.028553,0.19759798 0.026893,0.23794113 -0.016377,0.39814214 -0.046634,0.17271505 -0.046618,0.21047855 1.305e-4,0.25198185 0.049611,0.044055 0.094541,0.041855 0.2149169,-0.010413 0.1109654,-0.048234 0.1648285,-0.043425 0.155502,0.013932 -0.00936,0.057473 -0.1655815,0.1349369 -0.2751262,0.1363887 -0.1214307,0.00161 -0.1807824,-0.030768 -0.2321234,-0.1266802 l -0.0432,-0.08069 -0.050149,0.041269 c -0.050178,0.041283 -0.057069,0.06117 -0.050731,0.146552 0.00284,0.038833 -0.00384,0.045625 -0.045144,0.045625 -0.033414,0 -0.055057,-0.012759 -0.069467,-0.040785 z M 2.2392905,0.49949701 c -0.00454,-0.0206342 -0.00837,-0.007626 -0.00852,0.028847 -2.072e-4,0.0365023 0.0034,0.0533821 0.00808,0.0375289 0.00468,-0.015868 0.00482,-0.0457269 3.772e-4,-0.0663758 z M 1.1370526,2.8329454 c -0.00625,-0.00557 -0.022338,-0.00617 -0.035824,-0.00132 -0.014906,0.00528 -0.010496,0.00924 0.011339,0.00997 0.0197,7.2e-4 0.030734,-0.00323 0.024536,-0.00865 z M 0.89206866,2.7552474 c 0.00738,-0.00645 0.029004,-0.01188 0.048164,-0.01188 0.019161,0 0.040377,-0.013052 0.047128,-0.029037 0.0068,-0.01597 0.025401,-0.038335 0.041456,-0.049702 0.016055,-0.011299 -0.00864,-0.00645 -0.054913,0.010855 -0.04625,0.017305 -0.1193329,0.036518 -0.1623861,0.042691 -0.057369,0.00822 -0.075536,0.017599 -0.06799,0.035051 0.00568,0.013053 4.227e-4,0.034375 -0.011629,0.047282 -0.017062,0.018259 -0.00326,0.017158 0.06246,-0.00499 0.046419,-0.015648 0.090384,-0.03376 0.097716,-0.040272 z m 0.35711704,0.06111 c -0.00625,-0.00557 -0.022324,-0.00617 -0.035825,-0.00131 -0.014906,0.00528 -0.010496,0.00924 0.011339,0.00997 0.0197,7.201e-4 0.030733,-0.00323 0.024522,-0.00865 z M 1.809109,2.7309758 c -0.00468,-0.01597 -0.00852,-0.00294 -0.00852,0.029037 0,0.031942 0.00384,0.045008 0.00852,0.029037 0.00468,-0.01597 0.00468,-0.042105 0,-0.058074 z m 1.4472403,0.033187 c 0.023245,-0.026311 0.022594,-0.026896 -0.00709,-0.00631 -0.017984,0.012465 -0.032705,0.025592 -0.032705,0.029037 0,0.013638 0.015346,0.00485 0.039769,-0.022776 z M 1.7121272,2.7231307 c 0.010206,-0.00675 3.69e-5,-0.012465 -0.022776,-0.012612 -0.029754,-1.818e-4 -0.038335,0.00703 -0.030395,0.025356 0.0061,0.014079 0.016338,0.01977 0.022776,0.012611 0.00638,-0.00719 0.020125,-0.018536 0.030395,-0.025355 z m 2.2357131,-0.00879 c 0.023245,-0.026326 0.022579,-0.02691 -0.00709,-0.00631 -0.031131,0.021676 -0.041031,0.0353 -0.025642,0.0353 0.00384,0 0.018594,-0.013053 0.032705,-0.029038 z m -2.8804822,0.00588 c 0,-0.00352 -0.013048,-0.010999 -0.029004,-0.016397 -0.016637,-0.00573 -0.024138,-0.00294 -0.017585,0.00645 0.010909,0.015766 0.046589,0.023318 0.046589,0.00982 z M 2.0464969,2.667358 c 0.012622,-0.029183 0.00922,-0.029228 -0.053228,-4.9e-4 -0.031896,0.014695 -0.041185,0.025899 -0.0255,0.030739 0.033939,0.010418 0.06653,-0.00205 0.078727,-0.030254 z M 3.4034765,2.652047 c 0.034874,-0.031942 0.059198,-0.058076 0.054051,-0.058076 -0.00511,0 -0.037867,0.026134 -0.072743,0.058076 -0.034874,0.031942 -0.059198,0.058076 -0.054051,0.058076 0.00511,0 0.037867,-0.026134 0.072743,-0.058076 z M 0.46931196,2.68701 c 0,-0.00352 -0.013048,-0.010999 -0.029004,-0.016397 -0.016635,-0.00573 -0.024138,-0.00294 -0.017586,0.00645 0.01092,0.015766 0.046589,0.023318 0.046589,0.00982 z M 1.2034923,2.5936343 c -0.00808,-0.027454 -0.014877,-0.029859 -0.037442,-0.013198 -0.023941,0.017642 -0.023032,0.021895 0.00695,0.032367 0.01899,0.0066 0.03584,0.012612 0.037442,0.013199 0.00156,6.422e-4 -0.00156,-0.013932 -0.00695,-0.032367 z m 2.3855603,-0.070306 c 7.232e-4,-0.00689 -0.014522,-0.00383 -0.033883,0.00689 -0.026621,0.014753 -0.030039,0.024477 -0.014041,0.03989 0.016565,0.015957 0.023941,0.014518 0.033882,-0.00689 0.00695,-0.015017 0.013331,-0.032969 0.014041,-0.03989 z m 0.1532099,0.04162 c 0.023245,-0.02631 0.022579,-0.02691 -0.00709,-0.00631 -0.031131,0.021677 -0.041031,0.0353 -0.025642,0.0353 0.00384,0 0.018594,-0.013053 0.032705,-0.029037 z M 2.2471462,2.5317608 c 0.023245,-0.026311 0.022594,-0.02691 -0.00709,-0.00631 -0.017984,0.012465 -0.032705,0.025592 -0.032705,0.029037 0,0.013638 0.015346,0.00485 0.039768,-0.022775 z M 1.3570369,2.4612488 c 0.018607,-0.018259 0.029626,-0.033187 0.02448,-0.033187 -0.00511,0 -0.024563,0.01493 -0.043171,0.033187 -0.018607,0.018243 -0.029627,0.033187 -0.02448,0.033187 0.00511,0 0.024563,-0.01493 0.043172,-0.033187 z m -0.76196404,0.0066 c -0.00625,-0.00557 -0.022338,-0.00617 -0.035825,-0.00131 -0.014906,0.00528 -0.010496,0.00924 0.011351,0.00997 0.0197,7.201e-4 0.030734,-0.00323 0.024536,-0.00865 z M 2.9199488,2.448842 c 0.023245,-0.026326 0.022594,-0.02691 -0.00709,-0.00631 -0.031131,0.021676 -0.041031,0.0353 -0.025642,0.0353 0.00384,0 0.018594,-0.013053 0.032705,-0.029037 z M 4.1447241,2.3078043 c -0.00524,-0.011434 -0.00936,-0.00205 -0.00936,0.020737 0,0.022819 0.00425,0.032147 0.00936,0.020737 0.00524,-0.011434 0.00524,-0.030079 0,-0.041473 z m 0.2539402,0.04294 c -0.012905,-0.00454 -0.033868,-0.00454 -0.046717,0 -0.012905,0.00454 -0.00226,0.00836 0.023358,0.00836 0.025699,0 0.036208,-0.00383 0.02336,-0.00836 z M 4.2954867,2.3351103 c -0.00625,-0.00557 -0.022324,-0.00617 -0.035825,-0.00131 -0.014906,0.00528 -0.010496,0.00924 0.011351,0.00997 0.0197,7.201e-4 0.030734,-0.00323 0.024536,-0.00865 z m 0.2055791,0 c -0.00625,-0.00557 -0.022324,-0.00617 -0.035824,-0.00131 -0.014906,0.00528 -0.010496,0.00924 0.011339,0.00997 0.0197,7.201e-4 0.030733,-0.00323 0.024536,-0.00865 z M 0.66265186,2.2697473 c -0.0061,-0.014079 -0.015076,-0.022042 -0.019969,-0.017701 -0.00497,0.00439 -0.0034,0.015869 0.0034,0.025606 0.018422,0.026471 0.029202,0.021324 0.016565,-0.00792 z m 1.13357714,0.00248 c 0,-0.00352 -0.013048,-0.010999 -0.029004,-0.016411 -0.016636,-0.00573 -0.024138,-0.00294 -0.017585,0.00645 0.010909,0.015766 0.046589,0.023318 0.046589,0.00982 z m 1.644627,-0.01633 c 0,-0.00337 -0.014721,-0.016513 -0.032705,-0.029037 -0.029642,-0.020634 -0.030308,-0.020048 -0.00709,0.00631 0.024423,0.027643 0.039768,0.03643 0.039768,0.022775 z m -2.80926444,-0.06322 c -0.00597,-0.013198 -0.010362,-0.00924 -0.011339,0.00997 -8.112e-4,0.017497 0.00355,0.027293 0.00979,0.021779 0.00625,-0.00557 0.0068,-0.019828 0.00142,-0.031794 z m 3.48206694,0.013346 c 0,-0.012611 -0.017601,-0.027044 -0.0391,-0.03203 -0.037512,-0.00865 -0.037783,-0.00776 -0.00638,0.022952 0.038846,0.0381 0.045539,0.03945 0.045539,0.00909 z M 0.09045856,2.0008364 c -0.00396,-0.034214 -0.00737,-0.00617 -0.00737,0.062226 0,0.068444 0.00326,0.096439 0.00737,0.062226 0.00398,-0.034214 0.00398,-0.09022 0,-0.1244363 z M 4.7828517,2.1206967 c -0.00582,-0.00512 -0.016198,0.00409 -0.023217,0.020458 -0.010206,0.023641 -0.00794,0.025546 0.010496,0.00924 0.012763,-0.011298 0.018508,-0.024637 0.012763,-0.029756 z m -3.122946,-0.078372 c -0.00439,-0.020531 -0.00808,-0.00368 -0.00808,0.037338 0,0.041064 0.00369,0.05787 0.00808,0.037338 0.00439,-0.020531 0.00439,-0.05413 0,-0.074663 z m -1.08780424,0.037338 c -0.00638,-0.00909 -0.021572,-0.016484 -0.033811,-0.016336 -0.013332,1.494e-4 -0.011065,0.00674 0.00581,0.016336 0.03591,0.020606 0.042377,0.020606 0.028038,0 z M 4.7993446,2.0008513 c -0.00468,-0.01597 -0.00852,-0.00294 -0.00852,0.029037 0,0.031942 0.00384,0.045008 0.00852,0.029037 0.00468,-0.01597 0.00468,-0.042105 0,-0.058076 z m -1.14223,0.029038 c 0,-0.018245 -0.00667,-0.033187 -0.014679,-0.033187 -0.017885,0 -0.019487,0.039979 -0.00226,0.055303 0.017033,0.015121 0.016905,0.015296 0.016905,-0.02213 z M 3.0133949,2.0008513 c 0.023245,-0.026326 0.022579,-0.02691 -0.00709,-0.00631 -0.017984,0.012465 -0.032705,0.025591 -0.032705,0.029037 0,0.013638 0.015346,0.00485 0.039768,-0.022776 z M 0.91234826,1.9095886 c -0.00439,-0.020531 -0.00808,-0.00368 -0.00808,0.037338 0,0.041064 0.00369,0.05787 0.00808,0.037338 0.00439,-0.020531 0.00439,-0.05413 0,-0.074662 z m 2.57055754,0.092714 c -0.012905,-0.00454 -0.033868,-0.00454 -0.046717,0 -0.012905,0.00454 -0.00226,0.00836 0.023359,0.00836 0.025699,0 0.036208,-0.00383 0.023358,-0.00836 z m -1.805123,-0.076128 c -0.00524,-0.011434 -0.00936,-0.00205 -0.00936,0.020737 0,0.022819 0.00425,0.032147 0.00936,0.020737 0.00524,-0.011434 0.00524,-0.030079 0,-0.041488 z m 1.5333881,0.024067 c 0.016594,-0.00938 0.0139,-0.017583 -0.010072,-0.030856 -0.026691,-0.014798 -0.032634,-0.012465 -0.032634,0.013052 0,0.033893 0.00808,0.037294 0.042647,0.017833 z m 0.5941204,-0.019917 c 0.018606,-0.018259 0.029626,-0.033187 0.024479,-0.033187 -0.00511,0 -0.024563,0.01493 -0.043173,0.033187 -0.018608,0.018245 -0.029626,0.033187 -0.024479,0.033187 0.00511,0 0.024563,-0.01493 0.043173,-0.033187 z m 1.2428155,-0.00836 c 0.024138,-0.022819 0.039683,-0.041488 0.034548,-0.041488 -0.00511,0 -0.029103,0.018669 -0.053241,0.041488 -0.024138,0.022819 -0.039683,0.041474 -0.034548,0.041474 0.00511,0 0.029103,-0.018669 0.053241,-0.041474 z M 0.65114086,1.9036483 c -0.00625,-0.00557 -0.022324,-0.00617 -0.035824,-0.00131 -0.014906,0.00528 -0.010496,0.00924 0.011339,0.00997 0.0197,7.201e-4 0.030748,-0.00323 0.024536,-0.00865 z M 1.6968611,1.8441945 c -0.00597,-0.013198 -0.010362,-0.00924 -0.011339,0.00997 -8.113e-4,0.017497 0.00355,0.027293 0.00978,0.021779 0.00625,-0.00557 0.0068,-0.019828 0.00142,-0.031794 z m 1.4262828,0.030034 c 0,-0.00337 -0.014721,-0.016512 -0.032705,-0.029037 -0.029642,-0.020633 -0.030308,-0.020049 -0.00709,0.00631 0.024409,0.027643 0.039768,0.036429 0.039768,0.022775 z m 1.6072508,-0.016586 c 0,-0.00337 -0.014721,-0.016512 -0.032705,-0.029037 -0.029642,-0.020633 -0.030308,-0.020049 -0.00709,0.00631 0.024409,0.027643 0.039768,0.03643 0.039768,0.022775 z M 0.23013696,1.7855617 c -0.00864,-0.040022 -0.0112,-0.041445 -0.022891,-0.012465 -0.010206,0.025504 0.00496,0.054248 0.030535,0.057357 0.00115,1.336e-4 -0.00226,-0.020076 -0.00766,-0.044905 z m 2.79956204,0.00573 c 0,-0.00337 -0.014721,-0.016513 -0.032705,-0.029038 -0.029642,-0.020633 -0.030308,-0.020048 -0.00709,0.00631 0.024423,0.027643 0.039768,0.03643 0.039768,0.022775 z m 0.8539552,-0.055648 c -0.00468,-0.016148 -0.00893,-0.00689 -0.00936,0.020428 -3.816e-4,0.027381 0.00355,0.04058 0.00864,0.029347 0.00511,-0.011299 0.00539,-0.033626 6.921e-4,-0.049775 z m 0.26146,0.025606 c -0.00597,-0.013198 -0.010362,-0.00924 -0.011339,0.00997 -8.113e-4,0.017497 0.00355,0.027293 0.00978,0.021779 0.00625,-0.00557 0.0068,-0.019828 0.00142,-0.031794 z m -3.84680304,-0.12548 c -0.00156,-0.079854 -0.00638,-0.1227796 -0.01092,-0.095399 -0.00439,0.02738 -0.020381,0.061917 -0.035385,0.076758 -0.023954,0.0237 -0.02377,0.028187 0.00156,0.036811 0.018465,0.00631 0.028848,0.030915 0.028848,0.068414 0,0.032221 0.00425,0.058589 0.00936,0.058589 0.00511,0 0.00808,-0.065335 0.00651,-0.1451881 z m 1.40447264,0.071039 c 0,-0.015415 -0.010909,-0.020663 -0.029599,-0.014225 -0.023826,0.00806 -0.024748,0.012759 -0.00468,0.02411 0.033202,0.018685 0.034281,0.018375 0.034281,-0.00982 z m 0.9391201,-0.00425 c -0.033415,-0.00368 -0.088074,-0.00368 -0.1214736,0 -0.033414,0.00368 -0.0061,0.00675 0.060744,0.00675 0.066813,0 0.094145,-0.00308 0.060744,-0.00675 z m -1.086077,-0.034262 c -0.013473,-0.00396 -0.033399,6.335e-4 -0.044263,0.01027 -0.0139,0.012314 -0.00651,0.014518 0.024507,0.00719 0.025274,-0.00588 0.033741,-0.013346 0.019741,-0.017526 z m 1.7168296,0.023939 c 0,-0.00308 -0.018919,-0.019945 -0.042052,-0.037338 l -0.042051,-0.031605 0.035598,0.037338 c 0.033458,0.035079 0.048504,0.044891 0.048504,0.031604 z M 5.1923406,1.5198168 c -0.00425,-0.025225 -0.00794,-0.00851 -0.00808,0.037104 -1.347e-4,0.045625 0.0034,0.066258 0.0078,0.045859 0.00439,-0.020415 0.00454,-0.057736 2.538e-4,-0.082962 z m -2.0691967,0.088916 c 0,-0.00337 -0.014721,-0.016512 -0.032705,-0.029038 -0.029642,-0.020633 -0.030308,-0.020048 -0.00709,0.00631 0.024409,0.027643 0.039768,0.03643 0.039768,0.022776 z M 0.65858676,1.5527838 c 0.023245,-0.02631 0.022579,-0.02691 -0.00709,-0.00631 -0.017983,0.012465 -0.032705,0.025592 -0.032705,0.029037 0,0.013638 0.015346,0.00485 0.039768,-0.022775 z M 1.792297,1.4920549 c -0.00297,-0.00142 -0.018324,-0.011297 -0.034109,-0.021867 -0.023216,-0.01559 -0.028706,-0.013638 -0.028706,0.010557 0,0.020663 0.010496,0.027351 0.034109,0.021867 0.018763,-0.00439 0.031684,-0.00909 0.028706,-0.010557 z m 2.5293247,-0.00557 c 0.023245,-0.026311 0.022579,-0.026896 -0.00709,-0.00631 -0.031131,0.021677 -0.041031,0.0353 -0.025642,0.0353 0.00384,0 0.018594,-0.013053 0.032705,-0.029037 z m -3.44451994,-0.04743 c -0.023883,-0.021206 -0.037186,-0.022746 -0.064742,-0.00748 -0.031869,0.017628 -0.031401,0.018391 0.00581,0.00938 0.022267,-0.00542 0.045881,-0.00205 0.052504,0.00748 0.00666,0.00954 0.017531,0.01726 0.024267,0.01726 0.00666,0 -0.00128,-0.012028 -0.017812,-0.026692 z M 4.4150664,1.4201202 c 0.023245,-0.026326 0.022579,-0.02691 -0.00709,-0.00631 -0.031131,0.021676 -0.041031,0.0353 -0.025642,0.0353 0.00384,0 0.018594,-0.013053 0.032705,-0.029038 z m 0.3153283,-0.010413 c 0,-0.00352 -0.014721,-0.016512 -0.032705,-0.029037 -0.029642,-0.020633 -0.030308,-0.020048 -0.00709,0.00631 0.024409,0.027643 0.039768,0.03643 0.039768,0.022775 z m 0.4426123,-0.03004 c -0.00597,-0.013198 -0.010358,-0.00924 -0.011339,0.00997 -8.114e-4,0.017497 0.00355,0.027293 0.00978,0.021779 0.00624,-0.00557 0.00681,-0.019828 0.00142,-0.031794 z M 3.1547837,1.2876863 c -0.00468,-0.016148 -0.00893,-0.00689 -0.00936,0.020428 -3.816e-4,0.02738 0.00355,0.04058 0.00864,0.02936 0.00511,-0.011298 0.00539,-0.033628 6.963e-4,-0.049775 z m 1.3534239,-0.05856 c -0.00808,-0.096381 -0.013616,-0.09135 -0.026096,0.0237 -0.00581,0.052853 -0.00184,0.07519 0.012484,0.07035 0.013048,-0.00439 0.018168,-0.03967 0.013616,-0.09405 z m -3.56390314,-0.01642 c -0.019474,-0.020531 -0.037145,-0.040037 -0.039271,-0.043351 -0.00213,-0.00337 -0.00255,0.00924 -9.928e-4,0.02788 0.00156,0.018655 0.00893,0.030578 0.016395,0.0265 0.00737,-0.00409 0.018807,1.701e-4 0.025258,0.00938 0.00651,0.00924 0.01675,0.016865 0.022876,0.016865 0.0061,0 -0.00482,-0.016806 -0.024267,-0.037338 z m 3.14132084,0.00409 c 0.018608,-0.018259 0.029626,-0.033187 0.02448,-0.033187 -0.00511,0 -0.024566,0.01493 -0.043173,0.033187 -0.018609,0.018245 -0.029626,0.033187 -0.02448,0.033187 0.00511,0 0.024563,-0.01493 0.043173,-0.033187 z m 0.396007,-0.1617586 c -0.00469,-0.015971 -0.00852,-0.00294 -0.00852,0.029038 0,0.031942 0.00384,0.045008 0.00852,0.029038 0.00468,-0.01597 0.00468,-0.042105 0,-0.058076 z m 0.5290963,-0.026999 c 0,-0.00337 -0.014721,-0.016512 -0.032705,-0.0290376 -0.029642,-0.020634 -0.030307,-0.0200481 -0.0071,0.006306 0.024423,0.027644 0.039768,0.03643 0.039768,0.022776 z m -1.6714863,-0.0808513 0.054887,-0.0539244 -0.060743,0.0487327 c -0.056617,0.045434 -0.069324,0.0591161 -0.054887,0.0591161 0.00326,0 0.030549,-0.024271 0.060744,-0.0539245 z M 1.3290049,0.92645077 c 0.034874,-0.0319414 0.059198,-0.0580755 0.054051,-0.0580755 -0.00511,0 -0.037867,0.0261341 -0.072742,0.0580755 -0.034874,0.0319415 -0.059198,0.0580755 -0.054051,0.0580755 0.00511,0 0.037867,-0.0261342 0.072742,-0.0580755 z m 3.0509711,0.0470765 c -0.012905,-0.004546 -0.033868,-0.004546 -0.046717,0 -0.012905,0.004546 -0.00226,0.008362 0.023358,0.008362 0.025699,0 0.036208,-0.003815 0.02336,-0.008362 z m 0.4808656,-0.0474865 c -0.013048,-0.0139324 -0.028506,-0.0209722 -0.034449,-0.0156926 -0.00596,0.005278 0.00156,0.0165424 0.016678,0.0250341 0.039568,0.0222183 0.044732,0.0194906 0.017771,-0.00939 z M 0.87307246,0.88945002 c -0.01899,-0.0168657 -0.034677,0.008511 -0.019089,0.0309144 0.01178,0.016909 0.016182,0.016924 0.022508,6.886e-5 0.00439,-0.0115823 0.00284,-0.0254738 -0.0034,-0.0309875 z M 4.763318,0.90674062 c -0.01787,-0.004101 -0.051511,-0.00425 -0.074756,-3.315e-4 -0.023245,0.003964 -0.00864,0.007334 0.032492,0.007481 0.041115,1.8185e-4 0.060134,-0.003084 0.042264,-0.007184 z M 2.799509,0.71592249 c -0.00597,-0.0131989 -0.010362,-0.00924 -0.011339,0.009972 -8.113e-4,0.0174962 0.00355,0.0272924 0.00978,0.0217787 0.00625,-0.005575 0.0068,-0.0198276 0.00143,-0.0317952 z m 0.8282363,-0.002638 c 0,-0.003084 -0.017445,-0.0197396 -0.03876,-0.0368689 -0.028904,-0.0232154 -0.037215,-0.0249313 -0.032705,-0.006746 0.00326,0.0134922 0.018664,0.0294922 0.034096,0.0356957 0.03584,0.014372 0.037371,0.0147388 0.037371,0.007915 z m 1.1213376,3.1972e-4 c 0,-0.002936 -0.023131,-0.0235087 -0.051398,-0.0456243 l -0.051398,-0.0402273 0.045313,0.0456242 c 0.042349,0.0426471 0.057482,0.0532355 0.057482,0.0402274 z M 4.0699693,0.61530014 c -0.00524,-0.0114387 -0.00936,-0.002053 -0.00936,0.020737 0,0.0228194 0.00425,0.0321466 0.00936,0.0207369 0.00524,-0.0114387 0.00524,-0.0300788 0,-0.0414885 z m -3.0119546,0.004107 c 0.018609,-0.0182438 0.029627,-0.033188 0.02448,-0.033188 -0.0051,0 -0.024563,0.0149295 -0.043173,0.033188 -0.018609,0.0182585 -0.029627,0.033188 -0.02448,0.033188 0.00511,0 0.024563,-0.0149293 0.043173,-0.033188 z m 0.9193649,-0.0785052 c -0.00468,-0.0161467 -0.00893,-0.006892 -0.00936,0.020429 -3.816e-4,0.0273805 0.00355,0.0405794 0.00864,0.0293456 0.00511,-0.0112925 0.00539,-0.0336279 6.936e-4,-0.0497745 z m 0.9308417,0.028715 c 0.018607,-0.0182586 0.029627,-0.033188 0.02448,-0.033188 -0.00511,0 -0.024563,0.0149293 -0.043173,0.033188 -0.018609,0.0182438 -0.029626,0.033188 -0.02448,0.033188 0.00511,0 0.024563,-0.0149295 0.043173,-0.033188 z m 1.6913504,0.0269257 c 0,-0.003374 -0.014721,-0.0165132 -0.032705,-0.0290376 -0.029642,-0.0206342 -0.030308,-0.0200476 -0.00709,0.006307 0.024423,0.0276444 0.039768,0.0364291 0.039768,0.0227755 z M 1.4411381,0.49752152 c 0,-0.00308 -0.018919,-0.0199449 -0.042052,-0.0373383 l -0.042052,-0.0316041 0.035598,0.0373383 c 0.033457,0.0350799 0.048503,0.044891 0.048504,0.0316041 z m 0.5362415,-0.0893711 c -0.00468,-0.0161468 -0.00893,-0.006892 -0.00936,0.020429 -3.816e-4,0.0273805 0.00355,0.0405794 0.00864,0.0293456 0.00511,-0.0112925 0.00539,-0.0336279 6.936e-4,-0.0497745 z m -0.6445211,0.00484 c 0.019474,0.009826 0.019601,0.007773 6.85e-4,-0.0102654 -0.01963,-0.0187717 -0.028861,-0.0172759 -0.056063,0.009093 -0.029329,0.0284216 -0.0294,0.0294483 -6.85e-4,0.0102654 0.017531,-0.0117324 0.042761,-0.0157947 0.056063,-0.009093 z m 1.9915686,-0.079018 c 0.024636,-0.0579432 0.021884,-0.0577819 -0.038378,0.0022 -0.041385,0.0412247 -0.043696,0.0483373 -0.015104,0.0464308 0.018565,-0.001241 0.042634,-0.0231421 0.053483,-0.0486747 z m -1.9369715,0.007479 c 0.023245,-0.0263244 0.022594,-0.0269112 -0.00709,-0.006307 -0.017984,0.0124655 -0.032705,0.0255913 -0.032705,0.0290376 0,0.0136388 0.015346,0.00484 0.039768,-0.0227755 z M 4.1323484,0.330747 c 0,-0.003519 -0.012622,-0.010853 -0.028039,-0.0160733 -0.015416,-0.00528 -0.028039,-0.002347 -0.028039,0.006452 0,0.008799 0.012622,0.0160734 0.028039,0.0160734 0.015416,0 0.028039,-0.002933 0.028039,-0.006452 z M 3.4384096,0.2399386 c -0.010909,-0.003374 -0.033613,0.006158 -0.050363,0.020957 -0.028138,0.02499 -0.026633,0.0254445 0.019912,0.006013 0.027699,-0.0115861 0.041398,-0.0236993 0.030449,-0.0270285 z M 2.0746677,0.2314326 C 2.0914877,0.2134382 2.0877157,0.206648 2.0571947,0.19955 2.0274537,0.192658 2.0229427,0.195443 2.0379497,0.2114284 c 0.010786,0.0115861 0.014041,0.0258698 0.00724,0.0318827 -0.0068,0.006013 -0.00765,0.010853 -0.00213,0.010853 0.00552,0 0.019784,-0.0102654 0.031542,-0.0228634 z m 1.7349066,-0.003813 c -0.00625,-0.005574 -0.022323,-0.006158 -0.035825,-0.001311 -0.014906,0.00528 -0.010496,0.009238 0.011351,0.009972 0.0197,7.2007e-4 0.030734,-0.003227 0.024537,-0.008653 z M 1.7911667,0.1778445 c -0.00625,-0.005574 -0.022324,-0.006158 -0.035826,-0.00131 -0.014906,0.00528 -0.010496,0.009238 0.011339,0.009972 0.0197,7.2008e-4 0.030733,-0.003227 0.024522,-0.008653 z m 0.2055791,0 c -0.00625,-0.005574 -0.022338,-0.006158 -0.035826,-0.00131 -0.014906,0.00528 -0.010496,0.009238 0.011339,0.009972 0.0197,7.2008e-4 0.030733,-0.003227 0.024536,-0.008653 z M 1.8943478,0.1602899 c -0.012905,-0.004546 -0.033868,-0.004546 -0.046717,0 -0.012905,0.004546 -0.00226,0.00836 0.023359,0.00836 0.025699,0 0.036208,-0.003813 0.023359,-0.00836 z M 2.7271899,0.0838824 c 0.048177,-0.0033732 0.016111,-0.006599 -0.071266,-0.0070399 -0.1129224,-5.7048e-4 -0.1399393,0.002786 -0.093449,0.01143869 0.035982,0.0067462 0.058602,0.01319886 0.050291,0.01437221 -0.00837,0.001201 -0.00852,0.0115861 -4.396e-4,0.0229221 0.010786,0.0152816 0.016338,0.0133456 0.020976,-0.007479 0.00454,-0.02054665 0.029982,-0.02984452 0.093889,-0.0343468 z m 0.3445627,0.02663245 c -0.012905,-0.004546 -0.033868,-0.004546 -0.046717,0 -0.012905,0.004546 -0.00226,0.00836 0.023359,0.00836 0.025698,0 0.036208,-0.003813 0.023359,-0.00836 z M 2.4550173,0.09392824 c -0.012905,-0.0045463 -0.033868,-0.0045463 -0.046717,0 -0.012905,0.0045463 -0.00226,0.0083592 0.023359,0.0083592 0.025698,0 0.036208,-0.003813 0.023359,-0.0083592 z m 0.4952566,-4.5166e-4 c -0.017984,-0.0041066 -0.047428,-0.0041066 -0.06541,0 -0.017984,0.0041066 -0.00326,0.0076258 0.032705,0.0076258 0.035982,0 0.050688,-0.0033732 0.032705,-0.0076258 z"
       id="path1" />
  </g>
</svg>
